<mxfile host="app.diagrams.net" modified="2023-07-14T09:59:23.879Z" agent="Mozilla/5.0 (Macintosh; Intel Mac OS X 10_15_7) AppleWebKit/537.36 (KHTML, like Gecko) Chrome/114.0.0.0 Safari/537.36" etag="LPp_0wgJHXk-bQpj4b4E" version="21.6.2" type="device">
  <diagram name="第 1 页" id="OvNpe5Be86MQRMDQf5dR">
    <mxGraphModel dx="2247" dy="912" grid="1" gridSize="10" guides="1" tooltips="1" connect="1" arrows="1" fold="1" page="1" pageScale="1" pageWidth="827" pageHeight="1169" math="0" shadow="0">
      <root>
        <mxCell id="0" />
        <mxCell id="1" parent="0" />
        <mxCell id="q6tVstUImQIIpxLQKsNQ-1" value="" style="group" vertex="1" connectable="0" parent="1">
          <mxGeometry x="-660" y="920" width="2430" height="555" as="geometry" />
        </mxCell>
        <mxCell id="q6tVstUImQIIpxLQKsNQ-2" value="SequentialChain原理解析" style="text;html=1;strokeColor=none;fillColor=none;align=center;verticalAlign=middle;whiteSpace=wrap;rounded=0;fontSize=16;fontFamily=Times New Roman;fontColor=default;" vertex="1" parent="q6tVstUImQIIpxLQKsNQ-1">
          <mxGeometry x="1260" width="230" height="30" as="geometry" />
        </mxCell>
        <mxCell id="q6tVstUImQIIpxLQKsNQ-3" value="synopsis_template = &quot;&quot;&quot;You are a playwright. Given the title of play and the era it is set in, it is your job to write a synopsis for that title. \&#xa;And answer in chinese.&#xa;Title: {title}&#xa;Era: {era}&#xa;Playwright: This is a synopsis for the above play:&quot;&quot;&quot;&#xa;" style="rounded=1;whiteSpace=wrap;hachureGap=4;strokeColor=default;fontFamily=Tahoma;fontSize=16;fontColor=default;fillColor=default;align=left;spacingLeft=0;" vertex="1" parent="q6tVstUImQIIpxLQKsNQ-1">
          <mxGeometry y="65" width="810" height="160" as="geometry" />
        </mxCell>
        <mxCell id="q6tVstUImQIIpxLQKsNQ-4" value="review_template = &quot;&quot;&quot;You are a play critic from the New York Times. Given the synopsis of play, it is your job to write a review for that play. \&lt;br style=&quot;font-size: 16px;&quot;&gt;And answer in chinese.&lt;br style=&quot;font-size: 16px;&quot;&gt;Play Synopsis:&lt;br style=&quot;font-size: 16px;&quot;&gt;{synopsis}&lt;br style=&quot;font-size: 16px;&quot;&gt;Review from a New York Times play critic of the above play:&quot;&quot;&quot;" style="rounded=1;whiteSpace=wrap;hachureGap=4;strokeColor=default;fontFamily=Tahoma;fontSize=16;fontColor=default;fillColor=default;align=left;spacingLeft=0;html=1;" vertex="1" parent="q6tVstUImQIIpxLQKsNQ-1">
          <mxGeometry y="395" width="810" height="160" as="geometry" />
        </mxCell>
        <mxCell id="q6tVstUImQIIpxLQKsNQ-5" value="synosis_prompt" style="ellipse;whiteSpace=wrap;html=1;rounded=1;hachureGap=4;strokeColor=default;fontFamily=Tahoma;fontSize=16;fontColor=default;fillColor=default;" vertex="1" parent="q6tVstUImQIIpxLQKsNQ-1">
          <mxGeometry x="1050" y="105" width="120" height="80" as="geometry" />
        </mxCell>
        <mxCell id="q6tVstUImQIIpxLQKsNQ-6" value="" style="endArrow=classic;html=1;rounded=0;fontFamily=Tahoma;fontSize=16;fontColor=default;exitX=1;exitY=0.5;exitDx=0;exitDy=0;" edge="1" parent="q6tVstUImQIIpxLQKsNQ-1" target="q6tVstUImQIIpxLQKsNQ-5">
          <mxGeometry width="50" height="50" relative="1" as="geometry">
            <mxPoint x="810" y="145" as="sourcePoint" />
            <mxPoint x="1040" y="135" as="targetPoint" />
          </mxGeometry>
        </mxCell>
        <mxCell id="q6tVstUImQIIpxLQKsNQ-7" value="review_prompt" style="ellipse;whiteSpace=wrap;html=1;rounded=1;hachureGap=4;strokeColor=default;fontFamily=Tahoma;fontSize=16;fontColor=default;fillColor=default;" vertex="1" parent="q6tVstUImQIIpxLQKsNQ-1">
          <mxGeometry x="1050" y="445" width="120" height="80" as="geometry" />
        </mxCell>
        <mxCell id="q6tVstUImQIIpxLQKsNQ-8" value="" style="endArrow=classic;html=1;rounded=0;fontFamily=Tahoma;fontSize=16;fontColor=default;exitX=1;exitY=0.5;exitDx=0;exitDy=0;" edge="1" parent="q6tVstUImQIIpxLQKsNQ-1" target="q6tVstUImQIIpxLQKsNQ-7">
          <mxGeometry width="50" height="50" relative="1" as="geometry">
            <mxPoint x="810" y="485" as="sourcePoint" />
            <mxPoint x="1040" y="475" as="targetPoint" />
          </mxGeometry>
        </mxCell>
        <mxCell id="q6tVstUImQIIpxLQKsNQ-9" value="llm = ChatOpenAI()" style="ellipse;whiteSpace=wrap;html=1;aspect=fixed;rounded=1;hachureGap=4;strokeColor=default;fontFamily=Tahoma;fontSize=16;fontColor=default;fillColor=default;" vertex="1" parent="q6tVstUImQIIpxLQKsNQ-1">
          <mxGeometry x="1160" y="260" width="90" height="90" as="geometry" />
        </mxCell>
        <mxCell id="q6tVstUImQIIpxLQKsNQ-10" value="synosis_chain" style="rounded=0;whiteSpace=wrap;html=1;hachureGap=4;strokeColor=default;fontFamily=Tahoma;fontSize=16;fontColor=default;fillColor=default;" vertex="1" parent="q6tVstUImQIIpxLQKsNQ-1">
          <mxGeometry x="1270" y="115" width="120" height="60" as="geometry" />
        </mxCell>
        <mxCell id="q6tVstUImQIIpxLQKsNQ-11" value="" style="edgeStyle=orthogonalEdgeStyle;rounded=0;orthogonalLoop=1;jettySize=auto;html=1;fontFamily=Tahoma;fontSize=16;fontColor=default;" edge="1" parent="q6tVstUImQIIpxLQKsNQ-1" target="q6tVstUImQIIpxLQKsNQ-28">
          <mxGeometry relative="1" as="geometry">
            <mxPoint x="1170" y="485" as="sourcePoint" />
            <mxPoint x="1260" y="485" as="targetPoint" />
          </mxGeometry>
        </mxCell>
        <mxCell id="q6tVstUImQIIpxLQKsNQ-12" value="" style="edgeStyle=orthogonalEdgeStyle;rounded=0;orthogonalLoop=1;jettySize=auto;html=1;fontFamily=Tahoma;fontSize=16;fontColor=default;" edge="1" parent="q6tVstUImQIIpxLQKsNQ-1" source="q6tVstUImQIIpxLQKsNQ-5" target="q6tVstUImQIIpxLQKsNQ-10">
          <mxGeometry relative="1" as="geometry">
            <mxPoint x="1260" y="145" as="targetPoint" />
          </mxGeometry>
        </mxCell>
        <mxCell id="q6tVstUImQIIpxLQKsNQ-13" value="" style="endArrow=none;dashed=1;html=1;rounded=0;fontFamily=Tahoma;fontSize=16;fontColor=default;entryX=0.5;entryY=1;entryDx=0;entryDy=0;exitX=0.5;exitY=0;exitDx=0;exitDy=0;" edge="1" parent="q6tVstUImQIIpxLQKsNQ-1" source="q6tVstUImQIIpxLQKsNQ-9" target="q6tVstUImQIIpxLQKsNQ-10">
          <mxGeometry width="50" height="50" relative="1" as="geometry">
            <mxPoint x="1250" y="300" as="sourcePoint" />
            <mxPoint x="1300" y="250" as="targetPoint" />
          </mxGeometry>
        </mxCell>
        <mxCell id="q6tVstUImQIIpxLQKsNQ-14" value="" style="endArrow=none;dashed=1;html=1;rounded=0;fontFamily=Tahoma;fontSize=16;fontColor=default;exitX=0.5;exitY=1;exitDx=0;exitDy=0;entryX=0.5;entryY=0;entryDx=0;entryDy=0;" edge="1" parent="q6tVstUImQIIpxLQKsNQ-1" source="q6tVstUImQIIpxLQKsNQ-9" target="q6tVstUImQIIpxLQKsNQ-28">
          <mxGeometry width="50" height="50" relative="1" as="geometry">
            <mxPoint x="1250" y="390.00000000000045" as="sourcePoint" />
            <mxPoint x="1330" y="365" as="targetPoint" />
          </mxGeometry>
        </mxCell>
        <mxCell id="q6tVstUImQIIpxLQKsNQ-15" value="sequential_chain(chains = [synosis_chain,review_chain], ...)" style="rounded=1;whiteSpace=wrap;html=1;hachureGap=4;strokeColor=default;fontFamily=Tahoma;fontSize=16;fontColor=default;fillColor=default;" vertex="1" parent="q6tVstUImQIIpxLQKsNQ-1">
          <mxGeometry x="1580" y="250" width="310" height="80" as="geometry" />
        </mxCell>
        <mxCell id="q6tVstUImQIIpxLQKsNQ-16" value="Actor" style="shape=umlActor;verticalLabelPosition=bottom;verticalAlign=top;html=1;outlineConnect=0;rounded=1;hachureGap=4;strokeColor=default;fontFamily=Tahoma;fontSize=16;fontColor=default;fillColor=default;" vertex="1" parent="q6tVstUImQIIpxLQKsNQ-1">
          <mxGeometry x="2240" y="340" width="30" height="60" as="geometry" />
        </mxCell>
        <mxCell id="q6tVstUImQIIpxLQKsNQ-17" value="query:&amp;nbsp;Tragedy at sunset on the beach" style="ellipse;whiteSpace=wrap;html=1;rounded=1;hachureGap=4;strokeColor=default;fontFamily=Tahoma;fontSize=16;fontColor=default;fillColor=default;" vertex="1" parent="q6tVstUImQIIpxLQKsNQ-1">
          <mxGeometry x="2170" y="215" width="260" height="60" as="geometry" />
        </mxCell>
        <mxCell id="q6tVstUImQIIpxLQKsNQ-18" value="" style="endArrow=classic;html=1;rounded=0;fontFamily=Tahoma;fontSize=16;fontColor=default;exitX=0;exitY=0.5;exitDx=0;exitDy=0;entryX=1;entryY=0.5;entryDx=0;entryDy=0;" edge="1" parent="q6tVstUImQIIpxLQKsNQ-1" source="q6tVstUImQIIpxLQKsNQ-17" target="q6tVstUImQIIpxLQKsNQ-15">
          <mxGeometry width="50" height="50" relative="1" as="geometry">
            <mxPoint x="1980" y="180" as="sourcePoint" />
            <mxPoint x="2030" y="130" as="targetPoint" />
          </mxGeometry>
        </mxCell>
        <mxCell id="q6tVstUImQIIpxLQKsNQ-19" value="" style="endArrow=classic;html=1;rounded=0;fontFamily=Tahoma;fontSize=16;fontColor=default;exitX=0.468;exitY=-0.065;exitDx=0;exitDy=0;exitPerimeter=0;entryX=1;entryY=0.5;entryDx=0;entryDy=0;" edge="1" parent="q6tVstUImQIIpxLQKsNQ-1" source="q6tVstUImQIIpxLQKsNQ-15" target="q6tVstUImQIIpxLQKsNQ-10">
          <mxGeometry width="50" height="50" relative="1" as="geometry">
            <mxPoint x="1730" y="180" as="sourcePoint" />
            <mxPoint x="1780" y="130" as="targetPoint" />
          </mxGeometry>
        </mxCell>
        <mxCell id="q6tVstUImQIIpxLQKsNQ-20" value="1.先把query给synosis_chain" style="text;html=1;strokeColor=none;fillColor=none;align=center;verticalAlign=middle;whiteSpace=wrap;rounded=0;fontSize=16;fontFamily=Tahoma;fontColor=default;" vertex="1" parent="q6tVstUImQIIpxLQKsNQ-1">
          <mxGeometry x="1505" y="125" width="165" height="50" as="geometry" />
        </mxCell>
        <mxCell id="q6tVstUImQIIpxLQKsNQ-21" value="" style="endArrow=classic;html=1;rounded=0;fontFamily=Tahoma;fontSize=16;fontColor=default;exitX=0.5;exitY=1;exitDx=0;exitDy=0;entryX=0.5;entryY=0;entryDx=0;entryDy=0;" edge="1" parent="q6tVstUImQIIpxLQKsNQ-1" source="q6tVstUImQIIpxLQKsNQ-10" target="q6tVstUImQIIpxLQKsNQ-22">
          <mxGeometry width="50" height="50" relative="1" as="geometry">
            <mxPoint x="1380" y="280" as="sourcePoint" />
            <mxPoint x="1380" y="270" as="targetPoint" />
          </mxGeometry>
        </mxCell>
        <mxCell id="q6tVstUImQIIpxLQKsNQ-22" value="生成的简介" style="rounded=0;whiteSpace=wrap;html=1;hachureGap=4;strokeColor=default;fontFamily=Tahoma;fontSize=16;fontColor=default;fillColor=default;" vertex="1" parent="q6tVstUImQIIpxLQKsNQ-1">
          <mxGeometry x="1370" y="275" width="120" height="60" as="geometry" />
        </mxCell>
        <mxCell id="q6tVstUImQIIpxLQKsNQ-23" value="2.把生成的简介作为输入给review_chain" style="text;html=1;strokeColor=none;fillColor=none;align=center;verticalAlign=middle;whiteSpace=wrap;rounded=0;fontSize=16;fontFamily=Tahoma;fontColor=default;" vertex="1" parent="q6tVstUImQIIpxLQKsNQ-1">
          <mxGeometry x="1380" y="390" width="130" height="30" as="geometry" />
        </mxCell>
        <mxCell id="q6tVstUImQIIpxLQKsNQ-24" value="" style="endArrow=classic;html=1;rounded=0;fontFamily=Tahoma;fontSize=16;fontColor=default;exitX=1;exitY=0.5;exitDx=0;exitDy=0;entryX=0.5;entryY=1;entryDx=0;entryDy=0;" edge="1" parent="q6tVstUImQIIpxLQKsNQ-1" source="q6tVstUImQIIpxLQKsNQ-28" target="q6tVstUImQIIpxLQKsNQ-15">
          <mxGeometry width="50" height="50" relative="1" as="geometry">
            <mxPoint x="1460" y="500" as="sourcePoint" />
            <mxPoint x="1510" y="450" as="targetPoint" />
          </mxGeometry>
        </mxCell>
        <mxCell id="q6tVstUImQIIpxLQKsNQ-25" value="3.生成的评论返回" style="text;html=1;strokeColor=none;fillColor=none;align=center;verticalAlign=middle;whiteSpace=wrap;rounded=0;fontSize=16;fontFamily=Tahoma;fontColor=default;" vertex="1" parent="q6tVstUImQIIpxLQKsNQ-1">
          <mxGeometry x="1580" y="415" width="60" height="30" as="geometry" />
        </mxCell>
        <mxCell id="q6tVstUImQIIpxLQKsNQ-26" value="" style="endArrow=classic;html=1;rounded=0;fontFamily=Tahoma;fontSize=16;fontColor=default;" edge="1" parent="q6tVstUImQIIpxLQKsNQ-1" target="q6tVstUImQIIpxLQKsNQ-16">
          <mxGeometry width="50" height="50" relative="1" as="geometry">
            <mxPoint x="1890" y="290" as="sourcePoint" />
            <mxPoint x="2210" y="250" as="targetPoint" />
          </mxGeometry>
        </mxCell>
        <mxCell id="q6tVstUImQIIpxLQKsNQ-27" value="返回响应（评论）" style="text;html=1;strokeColor=none;fillColor=none;align=center;verticalAlign=middle;whiteSpace=wrap;rounded=0;fontSize=16;fontFamily=Tahoma;fontColor=default;" vertex="1" parent="q6tVstUImQIIpxLQKsNQ-1">
          <mxGeometry x="1990" y="385" width="150" height="20" as="geometry" />
        </mxCell>
        <mxCell id="q6tVstUImQIIpxLQKsNQ-28" value="review_chain" style="rounded=0;whiteSpace=wrap;html=1;hachureGap=4;strokeColor=default;fontFamily=Tahoma;fontSize=16;fontColor=default;fillColor=default;" vertex="1" parent="q6tVstUImQIIpxLQKsNQ-1">
          <mxGeometry x="1270" y="455" width="120" height="60" as="geometry" />
        </mxCell>
        <mxCell id="q6tVstUImQIIpxLQKsNQ-29" value="" style="endArrow=classic;html=1;rounded=0;fontFamily=Tahoma;fontSize=14;fontColor=default;exitX=0.5;exitY=1;exitDx=0;exitDy=0;entryX=0.5;entryY=0;entryDx=0;entryDy=0;" edge="1" parent="q6tVstUImQIIpxLQKsNQ-1" source="q6tVstUImQIIpxLQKsNQ-22" target="q6tVstUImQIIpxLQKsNQ-28">
          <mxGeometry width="50" height="50" relative="1" as="geometry">
            <mxPoint x="1290" y="620" as="sourcePoint" />
            <mxPoint x="1340" y="570" as="targetPoint" />
          </mxGeometry>
        </mxCell>
      </root>
    </mxGraphModel>
  </diagram>
</mxfile>
